<svg width="1025" height="1025" viewBox="0 0 1025 1025" xmlns="http://www.w3.org/2000/svg"><defs><linearGradient x1="49.997%" y1="3.133%" x2="49.997%" y2="99.984%" id="a"><stop stop-color="#ED3024" offset="0%"/><stop stop-color="#B6241C" offset="100%"/></linearGradient></defs><g fill="none" fill-rule="evenodd"><path d="M297.396 0h430.208C944.041 0 1025 80.959 1025 297.396v430.208C1025 944.041 944.041 1025 727.604 1025H297.396C80.959 1024.795 0 944.041 0 727.604V297.396C0 80.959 80.959 0 297.396 0z" fill="url(#a)" fill-rule="nonzero"/><path fill="#FFF" d="M312 810h401v-80H312zM457.918 465.333L511.997 304.6h2.001l51.078 160.733H457.918zm125.16-190.405c-10.991-32.784-23.661-58.68-67.076-58.68-43.416 0-56.898 25.789-68.472 58.68L328.23 614h79.114l27.54-80h152.223l25.537 80h84.121L583.078 274.928z"/></g></svg>