<svg xmlns="http://www.w3.org/2000/svg" fill="none" viewBox="0 0 72 24"><path fill="#016EF2" d="M39.14 11.012c.572.207 1.1.52 1.557.92.434.418.788.912 1.045 1.456.25.58.376 1.207.368 1.84a4.372 4.372 0 01-.368 1.816 4.538 4.538 0 01-2.601 2.363 5.692 5.692 0 01-1.987.348H30V5.25h10.86v2.82h-7.87v2.614h4.162c.677-.01 1.35.101 1.989.327zm-.493 2.857a2.405 2.405 0 00-1.536-.47H32.99v3.618h4.121a2.414 2.414 0 001.536-.47c.39-.305.574-.728.574-1.327s-.184-1.042-.574-1.35zm9.006 5.886h-2.86V5.25h2.86v6.15l5.086-6.15h3.557l-5.8 6.966 7.012 7.538h-3.734l-6.12-6.578v6.578zm14.246-.348a7.379 7.379 0 01-3.993-3.963 7.473 7.473 0 01-.574-2.942 7.45 7.45 0 012.171-5.336 7.43 7.43 0 012.396-1.592A7.793 7.793 0 0164.952 5a7.711 7.711 0 012.375.367 8.468 8.468 0 012.09 1.07 7.579 7.579 0 011.597 1.635c.454.643.787 1.363.983 2.124h-3.215a3.033 3.033 0 00-.613-.98 4.057 4.057 0 00-.923-.74 5.103 5.103 0 00-1.086-.448 5.006 5.006 0 00-3.093.184 4.367 4.367 0 00-1.475 1 4.632 4.632 0 00-.942 1.47 4.78 4.78 0 00-.323 1.82c-.01.621.101 1.239.327 1.818.218.545.538 1.044.943 1.47.412.432.916.767 1.474.981a4.635 4.635 0 001.885.367 4.784 4.784 0 001.208-.163 4.282 4.282 0 001.086-.47c.345-.184.657-.426.922-.715.265-.284.474-.617.614-.98H72a6.407 6.407 0 01-.983 2.104 7.15 7.15 0 01-1.598 1.635 7.257 7.257 0 01-2.089 1.062 7.158 7.158 0 01-2.376.388 7.798 7.798 0 01-3.055-.593z"></path><mask id="logo-blue_svg__a" width="24" height="24" x="0" y="0" maskUnits="userSpaceOnUse"><path fill="#fff" d="M12 24c6.627 0 12-5.373 12-12S18.627 0 12 0 0 5.373 0 12s5.373 12 12 12z"></path></mask><g mask="url(#logo-blue_svg__a)"><path fill="url(#logo-blue_svg__paint0_linear)" d="M22.729 18.035c3.32-5.883 1.145-13.4-4.859-16.788C11.867-2.14 4.308-.119.988 5.764c-3.32 5.883-1.145 13.4 4.858 16.788 6.004 3.388 13.563 1.366 16.883-4.517z"></path></g><mask id="logo-blue_svg__b" width="24" height="24" x="0" y="0" maskUnits="userSpaceOnUse"><path fill="#fff" d="M12 24c6.627 0 12-5.373 12-12S18.627 0 12 0 0 5.373 0 12s5.373 12 12 12z"></path></mask><g mask="url(#logo-blue_svg__b)"><path fill="url(#logo-blue_svg__paint1_radial)" d="M23.013 16.828c3.168-4.35 1.553-10.924-3.608-14.683-5.16-3.759-11.913-3.28-15.08 1.07-3.17 4.35-1.554 10.923 3.607 14.682 5.16 3.759 11.913 3.28 15.081-1.07z"></path></g><mask id="logo-blue_svg__c" width="24" height="24" x="0" y="0" maskUnits="userSpaceOnUse"><path fill="#fff" d="M12 24c6.627 0 12-5.373 12-12S18.627 0 12 0 0 5.373 0 12s5.373 12 12 12z"></path></mask><g mask="url(#logo-blue_svg__c)"><path fill="url(#logo-blue_svg__paint2_radial)" d="M23.093 11.225c1.572-3.047-.978-7.49-5.695-9.922C12.68-1.13 7.583-.631 6.01 2.416c-1.572 3.048.978 7.49 5.695 9.923 4.717 2.433 9.815 1.934 11.387-1.114z"></path></g><defs><radialGradient id="logo-blue_svg__paint1_radial" cx="0" cy="0" r="1" gradientTransform="rotate(105.292 8.29 18.816) scale(18.4483 30.9252)" gradientUnits="userSpaceOnUse"><stop offset=".03" stop-color="#006DEF"></stop><stop offset=".1" stop-color="#0671EF"></stop><stop offset=".21" stop-color="#187BF0"></stop><stop offset=".33" stop-color="#358BF2"></stop><stop offset=".46" stop-color="#5EA3F4"></stop><stop offset=".61" stop-color="#92C1F8"></stop><stop offset=".76" stop-color="#D1E4FB"></stop><stop offset=".83" stop-color="#F0F6FD"></stop></radialGradient><radialGradient id="logo-blue_svg__paint2_radial" cx="0" cy="0" r="1" gradientTransform="rotate(48.292 10.192 35.548) scale(26.2718 22.1401)" gradientUnits="userSpaceOnUse"><stop offset=".06" stop-color="#006DEF"></stop><stop offset=".09" stop-color="#0F75F0"></stop><stop offset=".25" stop-color="#529CF4"></stop><stop offset=".4" stop-color="#8BBCF7"></stop><stop offset=".54" stop-color="#B6D5FA"></stop><stop offset=".67" stop-color="#D6E7FB"></stop><stop offset=".77" stop-color="#E9F2FD"></stop><stop offset=".84" stop-color="#F0F6FD"></stop></radialGradient><linearGradient id="logo-blue_svg__paint0_linear" x1="18.571" x2="11.513" y1="39.476" y2="-4.504" gradientUnits="userSpaceOnUse"><stop stop-color="#006DEF"></stop><stop offset=".11" stop-color="#0570EF"></stop><stop offset=".23" stop-color="#1277F0"></stop><stop offset=".37" stop-color="#2884F2"></stop><stop offset=".5" stop-color="#4896F4"></stop><stop offset=".64" stop-color="#70ADF6"></stop><stop offset=".78" stop-color="#A1C9F9"></stop><stop offset=".92" stop-color="#DBEAFD"></stop><stop offset="1" stop-color="#fff"></stop></linearGradient></defs></svg>