<svg xmlns="http://www.w3.org/2000/svg" fill="none" viewBox="0 0 40 40"><mask id="a" maskUnits="userSpaceOnUse" x="0" y="0" width="40" height="40"><path d="M19.848 39.816c10.962 0 19.849-8.913 19.849-19.908C39.697 8.913 30.81 0 19.848 0S0 8.913 0 19.908c0 10.995 8.886 19.908 19.848 19.908z" fill="#fff"/></mask><g mask="url(#a)"><path d="M37.597 29.92c5.492-9.76 1.894-22.23-8.036-27.85C19.631-3.553 7.129-.198 1.637 9.562c-5.492 9.76-1.895 22.23 8.036 27.85 9.93 5.622 22.432 2.267 27.924-7.493z" fill="url(#paint0_linear)"/></g><mask id="b" maskUnits="userSpaceOnUse" x="0" y="0" width="40" height="40"><path d="M19.848 39.816c10.962 0 19.849-8.913 19.849-19.908C39.697 8.913 30.81 0 19.848 0S0 8.913 0 19.908c0 10.995 8.886 19.908 19.848 19.908z" fill="#fff"/></mask><g mask="url(#b)"><path d="M38.065 27.917c5.24-7.216 2.569-18.122-5.968-24.358-8.536-6.236-19.704-5.442-24.945 1.774-5.24 7.216-2.568 18.121 5.968 24.358 8.536 6.236 19.704 5.442 24.945-1.774z" fill="url(#paint1_radial)"/></g><mask id="c" maskUnits="userSpaceOnUse" x="0" y="0" width="40" height="40"><path d="M19.848 39.816c10.962 0 19.849-8.913 19.849-19.908C39.697 8.913 30.81 0 19.848 0S0 8.913 0 19.908c0 10.995 8.886 19.908 19.848 19.908z" fill="#fff"/></mask><g mask="url(#c)"><path d="M38.2 18.623c2.599-5.056-1.619-12.426-9.42-16.462C20.976-1.874 12.544-1.047 9.944 4.01c-2.6 5.056 1.618 12.426 9.42 16.462 7.802 4.035 16.235 3.208 18.834-1.848z" fill="url(#paint2_radial)"/></g><defs><radialGradient id="paint1_radial" cx="0" cy="0" r="1" gradientUnits="userSpaceOnUse" gradientTransform="matrix(-8.04751 29.522 -49.36082 -13.45545 47.351 26.182)"><stop offset=".03" stop-color="#006DEF"/><stop offset=".1" stop-color="#0671EF"/><stop offset=".21" stop-color="#187BF0"/><stop offset=".33" stop-color="#358BF2"/><stop offset=".46" stop-color="#5EA3F4"/><stop offset=".61" stop-color="#92C1F8"/><stop offset=".76" stop-color="#D1E4FB"/><stop offset=".83" stop-color="#F0F6FD"/></radialGradient><radialGradient id="paint2_radial" cx="0" cy="0" r="1" gradientUnits="userSpaceOnUse" gradientTransform="matrix(28.91156 32.53813 -27.41145 24.35628 49.54 7.114)"><stop offset=".06" stop-color="#006DEF"/><stop offset=".09" stop-color="#0F75F0"/><stop offset=".25" stop-color="#529CF4"/><stop offset=".4" stop-color="#8BBCF7"/><stop offset=".54" stop-color="#B6D5FA"/><stop offset=".67" stop-color="#D6E7FB"/><stop offset=".77" stop-color="#E9F2FD"/><stop offset=".84" stop-color="#F0F6FD"/></radialGradient><linearGradient id="paint0_linear" x1="30.721" y1="65.491" x2="18.977" y2="-7.461" gradientUnits="userSpaceOnUse"><stop stop-color="#006DEF"/><stop offset=".11" stop-color="#0570EF"/><stop offset=".23" stop-color="#1277F0"/><stop offset=".37" stop-color="#2884F2"/><stop offset=".5" stop-color="#4896F4"/><stop offset=".64" stop-color="#70ADF6"/><stop offset=".78" stop-color="#A1C9F9"/><stop offset=".92" stop-color="#DBEAFD"/><stop offset="1" stop-color="#fff"/></linearGradient></defs></svg>