<svg width="140" height="85" xmlns="http://www.w3.org/2000/svg">

 <g>
  <title>background</title>
  <rect fill="none" id="canvas_background" height="87" width="142" y="-1" x="-1"/>
 </g>
 <g>
  <title>Layer 1</title>
  <path id="svg_1" fill="#0F2562" d="m42.897,62.8495l-0.2138,0.2139c-3.2079,3.2792 -6.9149,5.0257 -10.7644,5.0257c-7.9841,0 -13.79405,-5.9881 -13.79405,-14.2574c0,-8.2693 5.80995,-14.2574 13.79405,-14.2574c3.8139,0 7.5565,1.7465 10.7644,5.0257l0.2138,0.2139l5.1683,-6.309l-0.1425,-0.1782c-4.2773,-5.0614 -9.4099,-7.5208 -15.7188,-7.5208c-6.309,0 -12.1189,2.103 -16.28915,5.9882c-4.52673,4.1703 -6.91485,10.0514 -6.91485,17.0019c0,6.9505 2.38812,12.8317 6.91485,16.9664c4.17025,3.8495 9.98015,5.9881 16.28915,5.9881c6.3089,0 11.4415,-2.4594 15.7188,-7.5208l0.1425,-0.1782l-5.1683,-6.202z"/>
  <path id="svg_2" fill="#0F2562" d="m62.3584,31.5545l-9.0891,0l0,44.3406l9.0891,0l0,-44.3406z"/>
  <path id="svg_3" fill="#0F2562" d="m97.9311,66.2356c-2.4237,1.4971 -4.6693,2.2099 -6.701,2.2099c-2.9227,0 -4.2415,-1.5326 -4.2415,-4.9901l0,-23.5247l9.2316,0l0,-8.3406l-9.2316,0l0,-13.7941l-8.9109,4.7763l0,9.0178l-7.699,0l0,8.3406l7.699,0l0,25.0218c0,6.8079 4.0633,11.4772 10.0871,11.5841c4.099,0.0713 6.5584,-1.1406 8.0554,-2.0317l0.0713,-0.0356l2.1743,-8.5545l-0.5347,0.3208z"/>
  <path id="svg_4" fill="#0F2562" d="m114.541,31.5545l-9.0893,0l0,44.3406l9.0893,0l0,-44.3406z"/>
  <path id="svg_5" fill="#ED1C24" d="m120.244,24.3545c-7.557,-11.3347 -21.5645,-19.3545 -36.4991,-19.3545c-14.7208,0 -28.6931,7.7703 -36.5347,19.3545l10.4436,0c7.1287,-7.3426 16.3604,-11.3347 26.0911,-11.3347c9.5524,0 18.9267,3.9921 26.0551,11.3347l10.444,0z"/>
  <path id="svg_6" fill="#0F2562" d="m133.574,21.8594c0,2.2099 -1.782,3.9921 -3.992,3.9921c-2.21,0 -3.992,-1.7822 -3.992,-3.9921c0,-2.2099 1.782,-3.9921 3.992,-3.9921c2.175,-0.0356 3.957,1.6753 3.992,3.8495c0,0.0357 0,0.107 0,0.1426zm0.749,0c0,-2.6376 -2.139,-4.7762 -4.776,-4.7762c-2.638,0 -4.776,2.1386 -4.776,4.7762c0,2.6377 2.138,4.7763 4.776,4.7763c2.637,0 4.776,-2.1386 4.776,-4.7763zm-2.602,-1.1049c0,-1.0693 -0.784,-1.5683 -1.711,-1.5683l-2.281,0l0,5.2039l0.891,0l0,-1.996l0.998,0l1.034,1.996l1.033,0l-1.069,-2.103c0.713,-0.1782 1.176,-0.8198 1.105,-1.5326zm-0.891,0c0,0.499 -0.357,0.7485 -0.82,0.7485l-1.39,0l0,-1.4614l1.39,0c0.392,-0.0713 0.784,0.2139 0.82,0.6416c0,0 0,0.0356 0,0.0713z"/>
 </g>
</svg>