<svg width="43" height="45" xmlns="http://www.w3.org/2000/svg">

 <g>
  <title>background</title>
  <rect fill="none" id="canvas_background" height="47" width="45" y="-1" x="-1"/>
 </g>
 <g>
  <title>Layer 1</title>
  <path id="svg_2" fill="#0D356C" d="m20.4817,2.3223c-10.74654,0 -19.4817,8.9453 -19.4817,19.9536l0,0.0009c0,10.9839 8.73609,19.9292 19.4808,19.9283c10.7231,0 19.4573,-8.9444 19.4573,-19.9302c0,-11.0083 -8.7333,-19.9526 -19.4564,-19.9526zm-0.0002,38.8865c-10.20526,0 -18.50793,-8.496 -18.50793,-18.9329c0,-10.4567 8.29798,-18.9554 18.50793,-18.9554c10.1893,0 18.4826,8.5015 18.4826,18.9554c0,10.4332 -8.2971,18.9329 -18.4826,18.9329z" clip-rule="evenodd" fill-rule="evenodd"/>
  <path id="svg_3" fill="#0D356C" d="m12.7632,10.7872c0.5958,-0.4357 1.2357,-0.8077 1.9092,-1.1098c1.4579,-0.6961 3.8126,-1.3716 6.7462,-1.3716c0.137,0 0.2768,0.001 0.4175,0.0038c2.5077,0.0469 5.4826,0.9334 7.3007,2.775c0.3077,0.3856 0.4879,0.7721 0.5545,1.0686c1.4419,0.7505 2.2835,1.4541 2.7488,2.2722c0.2072,0.4393 0.2693,0.9331 0.1773,1.41c0.5995,0.3612 0.8903,0.6811 1.2018,1.0949c0.197,0.3396 0.3518,0.7223 0.3987,1.0695c0.0647,0.4512 0.1088,0.9747 -0.3575,1.5883c0.4888,0.2523 0.8866,0.9531 0.9344,1.2524c0.243,1.1098 -0.4681,2.2009 -1.3772,3.0443c-1.0657,0.9532 -3.4186,2.0912 -5.3259,2.5931c-2.6716,0.6921 -5.1331,1.0997 -7.2875,1.4564l-0.0001,0l-0.0002,0c-0.8852,0.1466 -1.7185,0.2846 -2.4934,0.4302c1.1971,0.2955 2.8164,0.683 5.4573,0.683c5.6561,0 10.648,-2.7301 10.648,-2.7301c0,0 -0.1097,0.3434 -0.2232,0.6624c-3.5932,2.2272 -9.2934,3.1559 -11.7364,3.0433c-2.4626,-0.1153 -4.5472,-0.5 -6.5886,-1.1379c-0.6201,0.1838 -1.2421,0.3893 -1.8397,0.6379c3.1071,1.4542 5.4572,1.7741 8.0981,1.9767c2.7047,0.2064 7.1891,-0.4559 10.9577,-1.8613c-0.0846,0.0877 -0.1489,0.195 -0.2121,0.3006c-0.0694,0.1158 -0.1375,0.2295 -0.2298,0.313c-1.9307,1.0451 -6.0117,2.0911 -8.0757,2.1821c-2.0433,0.0919 -4.5265,0 -6.7012,-0.4109c-1.8641,-0.3837 -3.397,-0.9794 -4.9928,-1.7018c-0.2862,0.2223 -0.4194,0.4991 -0.4879,0.8181c6.2369,3.3407 12.0469,3.4083 18.6843,1.2946l-0.6023,0.591c-7.2998,3.0472 -13.0009,1.8632 -17.4178,-0.3189c-0.0307,-0.0138 -0.0624,-0.0276 -0.0946,-0.0415c-0.128,-0.0557 -0.2629,-0.1143 -0.3679,-0.1856c0.4222,0.728 3.792,3.2507 7.5634,3.5697c2.5987,0.227 5.7697,-0.228 7.6554,-0.9991l-1.1089,0.5891c-0.911,0.456 -3.3286,1.503 -6.7022,1.2741c-4.5022,-0.319 -7.0334,-2.3651 -8.1648,-3.4318c-0.5328,-0.5029 -0.7749,-1.0695 -0.93062,-1.775c-1.02165,-0.5451 -1.66523,-1.1155 -2.19529,-1.9795c-0.31146,-0.4766 -0.24579,-1.0432 -0.18012,-1.5236l0.13791,-0.4053c-0.49066,-0.3668 -1.00101,-0.7533 -1.1999,-1.1379c-0.44656,-0.8181 -0.17731,-1.5264 0.13228,-2.0705c-0.26738,-0.3181 -0.51223,-0.6352 -0.61918,-0.9541c-0.13416,-0.364 -0.15574,-0.7318 -0.11446,-1.139c0.09006,-0.6801 0.44562,-1.3143 0.91189,-1.8622c0.9738,-1.1605 2.53114,-2.0686 5.16739,-2.9552c2.0152,-0.6889 3.095,-0.9266 4.3883,-1.2112c0.3745,-0.0824 0.7668,-0.1687 1.2049,-0.2711c0.8666,-0.2056 1.7969,-0.3592 2.7425,-0.5155l0.0001,0l0,0l0,0l0,0c1.5484,-0.2557 3.1381,-0.5183 4.5563,-1.0268c-6.3692,-1.1352 -12.9784,-0.091 -18.37002,3.7029l0.35368,-1.0676c4.83524,-3.2282 10.18364,-5.1364 19.23594,-3.5209c0.4878,-0.2974 0.7758,-0.5929 0.9109,-1.183c-2.2647,-0.8406 -4.7255,-1.1361 -7.8983,-1.092c-2.8417,0.0919 -7.9677,1.1792 -10.71465,2.8435l0.83871,-1.0695c1.90824,-1.1624 6.89914,-2.6831 10.65184,-2.7525c2.638,-0.0666 3.9918,0.09 7.144,0.955c-0.272,-0.5072 -0.851,-0.7813 -1.7062,-1.1861l-0.1814,-0.086c-3.0368,-1.3876 -8.6967,-1.5255 -13.3321,0.5891zm16.7479,2.4805c-0.0872,0.319 -0.4174,0.7055 -0.6407,0.956l0,0.0009c0.6876,0.182 1.3978,0.4503 2.0611,0.7037c-0.0872,-0.6371 -0.7965,-1.2506 -1.4204,-1.6606zm-0.0874,3.7282c-0.3311,-0.0926 -0.6494,-0.1917 -0.9685,-0.291c-0.7053,-0.2196 -1.4141,-0.4402 -2.2719,-0.5946c0.7571,-0.2983 1.2646,-0.6145 1.7112,-0.9794c0.9944,0.2711 1.927,0.6145 2.6859,0.9541c-0.1313,0.1979 -0.8912,0.9184 -1.122,0.9184c-0.012,0.0006 -0.024,-0.002 -0.0347,-0.0075zm2.7307,0.0226c-0.2449,0.2974 -0.5122,0.545 -0.7993,0.773c0.1151,0.0563 0.2278,0.1085 0.3382,0.1596c0.3352,0.1552 0.6498,0.3009 0.9489,0.5224c0.2871,-0.5685 0.1098,-0.9325 -0.4878,-1.455zm-23.58308,6.4123c-1.58254,-2.2317 3.63688,-3.8517 5.00348,-4.2759c0.0536,-0.0166 0.1012,-0.0314 0.1423,-0.0443c2.7722,-0.8444 6.0136,-1.4767 8.9425,-1.8407c2.0142,-0.2514 3.0828,-0.0216 4.9919,0.5c-2.3219,0.6353 -4.6293,1.0658 -6.9053,1.4905l0,0c-2.5307,0.4723 -5.0225,0.9373 -7.4522,1.6683c-3.46585,1.0312 -4.55962,2.3123 -4.70534,2.483c-0.01072,0.0125 -0.01631,0.0191 -0.01734,0.0191zm7.76588,-1.5246c-1.2881,0.2955 -4.8174,1.1352 -6.54832,2.6372c0.32711,0.2755 0.57449,0.4068 0.86236,0.5595c0.14145,0.0751 0.29268,0.1553 0.46796,0.2604c0.7102,-0.4784 1.6868,-0.9334 3.1315,-1.3228c2.2845,-0.6199 4.0578,-0.9186 6.0711,-1.2578c0.1926,-0.0324 0.3875,-0.0652 0.5851,-0.0987c2.2394,-0.3472 6.4771,-1.2553 8.8065,-2.1203c0.7787,-0.2702 1.486,-0.6351 1.9955,-1.0695c-0.1558,-0.1801 -1.6643,-0.9287 -1.7094,-0.8603c-0.9278,0.4541 -2.259,0.9063 -4.1682,1.3866c-0.7345,0.1903 -1.9565,0.4153 -3.4675,0.6936l-0.0001,0l0,0l-0.0001,0c-1.7292,0.3184 -3.8371,0.7065 -6.0264,1.1921zm-3.329,4.4563c0.7299,-0.319 1.5292,-0.5695 2.3032,-0.7702c1.7255,-0.4343 3.3605,-0.7117 5.0573,-0.9997l0,0l0.0001,0l0,0c2.1446,-0.3639 4.388,-0.7445 7.0382,-1.4799c2.2844,-0.6163 3.9478,-1.2768 4.9919,-2.0921c0.085,-0.0766 0.1705,-0.1453 0.2563,-0.2142l0.0001,-0.0001c0.0695,-0.0558 0.1392,-0.1117 0.2089,-0.1722c1.3754,2.1812 -3.7929,3.8643 -7.3232,4.6411c-1.8455,0.3737 -3.6947,0.729 -5.5473,1.0657c-2.3041,0.3865 -3.0621,0.592 -4.6589,1.0695c-0.7974,-0.319 -1.5967,-0.6605 -2.3266,-1.0479zm-3.97422,-0.5666c-0.05744,-0.0374 -0.11633,-0.0757 -0.17797,-0.1154l0,-0.001c-0.17731,0.4128 0.18107,0.8631 0.53381,1.0695c0.0965,-0.0988 0.21144,-0.1899 0.32215,-0.2777c0.06582,-0.0521 0.13014,-0.1031 0.18821,-0.1538c-0.34994,-0.1855 -0.59143,-0.3427 -0.86617,-0.5216l-0.00003,0zm1.66513,1.9766l0.00062,-0.0006c0.52057,0.3118 1.04577,0.6156 1.57547,0.9116c0.3914,-0.2466 0.807,-0.4526 1.2403,-0.6145c-0.2613,-0.1208 -0.5297,-0.2406 -0.8009,-0.3616l-0.0001,-0.0001c-0.3969,-0.1771 -0.7998,-0.357 -1.1954,-0.5465c-0.3103,0.2034 -0.59711,0.4068 -0.81937,0.6111l-0.00062,-0.0003l0,0.0009zm0.51389,1.7517c-0.36519,-0.1988 -0.7287,-0.3967 -1.09221,-0.639c-0.02346,0.4334 0.24486,0.8199 0.80024,1.2984c0.06474,-0.2299 0.17727,-0.409 0.33307,-0.637l-0.0411,-0.0224z" clip-rule="evenodd" fill-rule="evenodd"/>
 </g>
</svg>