<svg width="38" height="38" xmlns="http://www.w3.org/2000/svg">

 <g>
  <title>background</title>
  <rect fill="none" id="canvas_background" height="40" width="40" y="-1" x="-1"/>
 </g>
 <g>
  <title>Layer 1</title>
  <path id="svg_2" fill="#00BEF0" d="m18.4375,2c-9.64286,0 -17.4375,7.7946 -17.4375,17.4375c0,9.6429 7.79464,17.4375 17.4375,17.4375c9.6429,0 17.4375,-7.7946 17.4375,-17.4375c-0.0804,-9.6429 -7.875,-17.4375 -17.4375,-17.4375zm-2.4911,24.8304l-1.2857,3.7767c-4.82141,-1.6071 -8.0357,-6.1875 -8.0357,-11.3303c0,-5.1429 3.21429,-9.6429 8.1161,-11.3304l1.2857,3.7768c-3.2143,1.0447 -5.30359,4.0982 -5.30359,7.4732c-0.08035,3.6161 2.00889,6.5893 5.22319,7.634zm5.9465,3.9375l-1.2054,-3.8572c3.2946,-1.0446 5.4643,-4.0982 5.4643,-7.5536c0,-3.4553 -2.1697,-6.4285 -5.3839,-7.4732l1.2857,-3.8571c4.9018,1.6071 8.1964,6.1875 8.1964,11.3303c0,5.2233 -3.375,9.8036 -8.3571,11.4108z"/>
 </g>
</svg>