<svg xmlns="http://www.w3.org/2000/svg" viewBox="0 0 366 99" fill="none" id="open-logo-light"><g clip-path="url(#open-logo-light_clip0)"><path d="M101.698 90.094a4.354 4.354 0 01-1.429 3.508 5.918 5.918 0 01-3.995 1.22h-5.583V78.418h9.668v1.63h-7.72v5.297h3.645c3.61 0 5.414 1.553 5.414 4.659v.09zm-5.434 3.168c2.324 0 3.486-1.056 3.486-3.168v-.13c0-2.066-1.222-3.1-3.665-3.1h-3.446v6.398h3.625zM104.394 82.826h1.898v2c.402-.66.97-1.201 1.648-1.57a4.703 4.703 0 012.407-.65 5.137 5.137 0 013.936 1.63 6.19 6.19 0 011.578 4.418v.18a6.547 6.547 0 01-1.499 4.488 4.99 4.99 0 01-3.995 1.71 4.391 4.391 0 01-4.055-2.18v6.108h-1.898l-.02-16.133zm5.774 10.616a3.303 3.303 0 002.696-1.15 5.229 5.229 0 00.999-3.328v-.18a4.916 4.916 0 00-.999-3.359 3.372 3.372 0 00-2.647-1.179 3.705 3.705 0 00-2.826 1.16 4.76 4.76 0 00-1.089 3.378v.18a4.789 4.789 0 001.069 3.369 3.736 3.736 0 002.807 1.11h-.01zM123.631 95.032a5.582 5.582 0 01-4.205-1.73 6.065 6.065 0 01-1.668-4.338v-.18a6.092 6.092 0 011.658-4.408 6.072 6.072 0 018.46 0 5.999 5.999 0 011.658 4.388v.18a6.005 6.005 0 01-1.688 4.378 5.683 5.683 0 01-4.215 1.71zm0-1.58a3.576 3.576 0 002.857-1.24 4.853 4.853 0 001.079-3.248v-.2a4.93 4.93 0 00-1.069-3.328 3.918 3.918 0 00-2.862-1.24 3.928 3.928 0 00-2.861 1.24 4.924 4.924 0 00-1.059 3.298v.23a4.904 4.904 0 00.999 3.299 3.588 3.588 0 002.936 1.18l-.02.01zM134.119 88.694v6.128h-1.898V82.826h1.898v5.598l4.994-5.598h2.227l-5.134 5.638 5.574 6.358h-2.318l-5.343-6.128zM148.152 95.032a5.552 5.552 0 01-4.185-1.68 6.08 6.08 0 01-1.618-4.388v-.2a6.308 6.308 0 011.568-4.428 5.231 5.231 0 013.995-1.72 5.34 5.34 0 013.906 1.48 5.941 5.941 0 011.548 4.488v.62h-8.99c.094 2.832 1.375 4.248 3.846 4.248 1.878 0 2.94-.696 3.186-2.089h1.898a4.004 4.004 0 01-1.678 2.729 5.892 5.892 0 01-3.476.94zm3.256-7.367c-.166-2.313-1.312-3.469-3.436-3.469a3.274 3.274 0 00-2.387.92 4.382 4.382 0 00-1.189 2.549h7.012zM156.102 82.826H158v2c.402-.66.97-1.201 1.648-1.57a4.7 4.7 0 012.407-.65 5.14 5.14 0 013.935 1.63 6.19 6.19 0 011.529 4.408v.18a6.552 6.552 0 01-1.499 4.488 4.99 4.99 0 01-3.995 1.71 4.391 4.391 0 01-4.055-2.18v6.118h-1.898l.03-16.133zm5.773 10.616a3.305 3.305 0 002.727-1.16 5.233 5.233 0 00.939-3.358v-.18a4.921 4.921 0 00-.999-3.359 3.38 3.38 0 00-2.647-1.179 3.704 3.704 0 00-2.826 1.16 4.76 4.76 0 00-1.089 3.378v.22a4.789 4.789 0 001.069 3.369 3.729 3.729 0 002.826 1.11z" fill="#000"></path><path d="M35.477 0a35.467 35.467 0 00-19.714 5.991A35.51 35.51 0 002.698 21.934 35.542 35.542 0 0010.4 60.636a35.46 35.46 0 0038.676 7.688 35.493 35.493 0 0015.922-13.085 35.535 35.535 0 00-4.425-44.844A35.485 35.485 0 0035.477 0zm-4.994 50.62l-2.646 7.756a24.323 24.323 0 01-11.916-8.875 24.354 24.354 0 010-28.31 24.323 24.323 0 0111.916-8.876l2.606 7.767a16.132 16.132 0 00-7.88 5.89 16.153 16.153 0 000 18.748 16.132 16.132 0 007.88 5.89l.04.01zm12.166 7.906l-2.447-7.817a16.131 16.131 0 008.059-5.823 16.152 16.152 0 00-7.88-24.844l2.567-7.777a24.312 24.312 0 0112.097 8.91 24.343 24.343 0 01-.167 28.593 24.312 24.312 0 01-12.2 8.768" fill="#00BEF0"></path><path d="M360.656 41.863l3.906 4.718a17.846 17.846 0 01-13.164 5.398 19.676 19.676 0 01-9.13-1.82c-5.233-2.598-7.87-7.876-7.87-14.283 0-9.737 6.572-16.844 16.27-16.844 10.728 0 15.981 8.057 15.272 18.533h-24.57a8.071 8.071 0 003.755 6.417 12.315 12.315 0 006.712 1.65 12.086 12.086 0 008.829-3.809l-.01.04zm-19.207-9.876h17.35c-.43-3.808-3.546-6.997-8.57-6.997a8.618 8.618 0 00-8.78 6.997zM176.538 51.17h8.869l-13.933-16.183 13.713-15.194h-8.739L165.98 31.987h-3.076V19.822h-6.792v31.347h6.792V38.704h3.116l10.518 12.465zm28.855-25.72c-5.663 0-9.429 4.419-9.429 9.997 0 5.577 3.766 9.996 9.429 9.996s9.389-4.329 9.389-9.996c0-5.668-3.506-9.996-9.389-9.996zm1.169-6.407c8.819 0 15.311 6.927 15.311 16.454 0 9.526-6.442 16.483-15.311 16.483a13.134 13.134 0 01-10.128-4.108v16.333h-6.832V19.822h6.662v3.768a12.565 12.565 0 0110.298-4.548zm89.162.78h-28.046v6.277h10.597v25.07h6.832V26.1h10.597l.02-6.277zm-144.316 0h-28.036v6.277h10.597v25.07h6.862V26.1h10.597l-.02-6.277zm-36.346 15.674c0-5.848-4.155-10.176-9.779-10.176-5.623 0-9.778 4.198-9.778 10.176 0 5.977 4.065 10.215 9.778 10.215 5.714 0 9.779-4.288 9.779-10.215zm-26.558 0c0-9.397 7.27-16.454 16.789-16.454 9.519 0 16.79 7.057 16.79 16.454 0 9.396-7.281 16.483-16.8 16.483-9.518 0-16.79-7.087-16.79-16.483h.01zm240.361-15.674v31.347h-6.712V30.988l-16.391 20.181h-5.363V19.822h6.702v20.162l16.44-20.172 5.324.01zm-65.851 31.347h-6.792V19.822h6.792v31.347zm-17.389-10.695a4.525 4.525 0 00-2.806-4.426 4.51 4.51 0 00-1.819-.332h-6.881v9.656H241a4.618 4.618 0 004.625-4.888v-.01zm6.752.01c0 6.277-4.545 10.695-11.167 10.695h-13.793V19.822h6.751v10.166h7.661c6.492 0 10.558 4.198 10.558 10.526" fill="#000"></path></g></svg>