<svg width="55" height="55" xmlns="http://www.w3.org/2000/svg">
 <g>
  <title>background</title>
  <rect fill="none" id="canvas_background" height="57" width="57" y="-1" x="-1"/>
 </g>

 <g>
  <title>Layer 1</title>
  <path id="svg_2" fill="#FAEB00" d="m45.7496,9.2901l-36.46001,0l0,36.46l36.46001,0l0,-36.46z"/>
  <path id="svg_3" fill="black" d="m9.29012,9.2901l36.45998,0l0,36.46l-36.45998,0l0,-36.46zm-1.29012,37.7501l39.0402,0l0,-39.0402l-39.0402,0l0,39.0402z"/>
  <path id="svg_4" fill="black" d="m27.52,31.9514l-11.21846,11.2185l-4.43129,-4.4313l11.21845,-11.2185l-2.3559,-2.3558l0,-4.5996l-1.6266,-1.6267l0,4.0387l-1.40235,1.4023l-5.72142,-5.6654l-1.40231,1.4024c0,-1.0658 0.22437,-4.1509 2.80462,-6.675c2.80462,-2.6925 5.83356,-1.4584 6.89936,-0.4488l5.7214,5.6654l-1.4584,1.4584l2.9729,2.9728l2.9729,-2.9728l-1.4584,-1.4584l5.7214,-5.7215c1.0658,-1.0096 4.0947,-2.2437 6.8994,0.4488c2.5802,2.5802 2.8046,5.6092 2.8046,6.675l-1.4023,-1.4023l-5.7214,5.7214l-1.4024,-1.4023l0,-4.0387l-1.6266,1.6267l0,4.5996l-2.3559,2.3558l11.2185,11.2185l-4.4313,4.4313l-11.2185,-11.2185z"/>
 </g>
</svg>