<svg width="35" height="35" xmlns="http://www.w3.org/2000/svg">
 <defs>
  <linearGradient y2="0.32574" x2="0.95028" y1="0.69476" x1="-0.0201" id="paint0_linear">
   <stop stop-color="#A3CD39" offset="0.1226"/>
   <stop stop-color="#86C339" offset="0.2846"/>
   <stop stop-color="#21A038" offset="0.8693"/>
  </linearGradient>
  <linearGradient y2="-0.00338" x2="0.19805" y1="0.96184" x1="0.74392" id="paint1_linear">
   <stop stop-color="#F2E913" offset="0.1444"/>
   <stop stop-color="#E7E518" offset="0.3037"/>
   <stop stop-color="#CADB26" offset="0.5823"/>
   <stop stop-color="#A3CD39" offset="0.891"/>
  </linearGradient>
  <linearGradient y2="0.79705" x2="0.99918" y1="0.26245" x1="0.07812" id="paint2_linear">
   <stop stop-color="#F2E913" offset="0.1324"/>
   <stop stop-color="#EBE716" offset="0.2977"/>
   <stop stop-color="#D9E01F" offset="0.5306"/>
   <stop stop-color="#BBD62D" offset="0.8023"/>
   <stop stop-color="#A3CD39" offset="0.9829"/>
  </linearGradient>
  <linearGradient y2="0.18167" x2="0.94432" y1="0.73126" x1="0.08717" id="paint3_linear">
   <stop stop-color="#0FA8E0" offset="0.0592"/>
   <stop stop-color="#0099F9" offset="0.5385"/>
   <stop stop-color="#0291EB" offset="0.9234"/>
  </linearGradient>
  <linearGradient y2="0.07254" x2="0.73758" y1="1.0378" x1="0.17757" id="paint4_linear">
   <stop stop-color="#A3CD39" offset="0.0698"/>
   <stop stop-color="#81C55F" offset="0.2599"/>
   <stop stop-color="#0FA8E0" offset="0.9216"/>
  </linearGradient>
  <linearGradient y2="0.75008" x2="0.92263" y1="0.21205" x1="-0.07695" id="paint5_linear">
   <stop stop-color="#0291EB" offset="0.0566"/>
   <stop stop-color="#0C8ACB" offset="0.79"/>
  </linearGradient>
 </defs>
 <g>
  <title>background</title>
  <rect fill="none" id="canvas_background" height="37" width="37" y="-1" x="-1"/>
 </g>
 <g>
  <title>Layer 1</title>
  <path id="svg_6" fill="#21A038" d="m26.7568,7.3876c0.6521,0.8427 1.2039,1.7584 1.6442,2.7287l-12.5075,9.2191l-5.2275,-3.2777l0,-3.9402l5.2275,3.275l10.8633,-8.0049z"/>
  <path id="svg_7" fill="url(#paint0_linear)" d="m15.9172,27.1998c-0.1925,0 -0.3829,-0.0049 -0.5735,-0.0147l-0.1718,3.4165c0.2468,0.0118 0.4955,0.0187 0.7453,0.0187c4.1195,0 7.849,-1.6573 10.5479,-4.3379l-2.4403,-2.4227c-2.077,2.0621 -4.9446,3.3401 -8.1076,3.3401z"/>
  <path id="svg_8" fill="url(#paint1_linear)" d="m4.4452,15.8099c0,-0.1912 0.00493,-0.3803 0.0148,-0.5695l-3.44124,-0.1705c-0.01185,0.245 -0.01876,0.492 -0.01876,0.74c0,4.0897 1.66929,7.7925 4.36918,10.4721l2.44024,-2.4228c-2.07795,-2.062 -3.36422,-4.9092 -3.36422,-8.0493z"/>
  <path id="svg_9" fill="url(#paint2_linear)" d="m15.9146,27.1993c-3.3681,0 -6.4017,-1.4486 -8.50235,-3.7517l-2.55873,2.2982c2.72948,2.9932 6.67418,4.8739 11.06108,4.8739l0,-3.4204z"/>
  <path id="svg_10" fill="#21A038" d="m30.8344,15.8102c0,-0.9055 -0.0819,-1.7926 -0.2389,-2.6529l-3.2111,2.3492c0.0029,0.101 0.0038,0.2019 0.0038,0.3037c0,3.344 -1.459,6.3559 -3.7788,8.4414l2.3149,2.5405c3.0157,-2.709 4.9101,-6.6254 4.9101,-10.9819z"/>
  <path id="svg_11" fill="url(#paint3_linear)" d="m15.916,4.4214c0.1925,0 0.383,0.0069 0.5736,0.0157l0.1717,-3.4185c-0.2468,-0.0117 -0.4956,-0.0186 -0.7453,-0.0186c-4.1195,0 -7.84891,1.6573 -10.54784,4.3378l2.44026,2.4227c2.07698,-2.062 4.94568,-3.3391 8.10758,-3.3391z"/>
  <path id="svg_12" fill="#21A038" d="m27.72,6.7562c0.7048,0.9036 1.307,1.8905 1.7877,2.9441l-13.5922,9.9448l-5.6782,-3.5341l0,-4.2516l5.6782,3.5342l11.8045,-8.6374z"/>
  <path id="svg_13" fill="url(#paint4_linear)" d="m8.22404,7.3681l-2.31488,-2.5403c-3.0148,2.7099 -4.90916,6.6263 -4.90916,10.9817l3.44619,0c-0.00099,-3.344 1.45804,-6.3557 3.77785,-8.4414z"/>
  <path id="svg_14" fill="url(#paint5_linear)" d="m22.3829,6.409l2.9012,-2.1228c-2.5607,-2.0542 -5.8192,-3.2862 -9.3681,-3.2862l0,3.4214c2.3978,0 4.6249,0.7341 6.4669,1.9876z"/>
 </g>
</svg>