<svg width="23" height="21" xmlns="http://www.w3.org/2000/svg" class="Header__logoImage">

 <g>
  <title>background</title>
  <rect fill="none" id="canvas_background" height="23" width="25" y="-1" x="-1"/>
 </g>
 <g>
  <title>Layer 1</title>
  <g stroke="null" id="svg_1" fill="none">
   <path stroke="null" id="svg_2" d="m13.08321,0.221l0,5.416l-2.19306,0c-2.77039,0 -5.00256,2.137 -5.00256,4.79c0,2.652 2.23216,4.789 5.00153,4.789l2.19409,0l0,5.416c5.00153,-0.921 8.73518,-5.121 8.73518,-10.206c0,-5.047 -3.73262,-9.247 -8.73518,-10.205" fill="#003791"/>
   <path stroke="null" id="svg_3" d="m10.89015,16.91c-3.73262,0 -6.77367,-2.91 -6.77367,-6.483c0,-3.573 3.04002,-6.484 6.77161,-6.484l0.424,0l0,-3.943l-0.42297,0c-6.00183,0 -10.88912,4.679 -10.88912,10.426c0,5.785 4.88729,10.464 10.89015,10.464l0.42297,0l0,-3.978l-0.42297,0l0,-0.002zm26.31976,-2.836a4.93875,4.799 0 0 1 -3.11618,1.068c-2.73232,0 -4.92537,-2.1 -4.92537,-4.716c0,-2.615 2.19203,-4.715 4.92537,-4.715a4.85745,4.72 0 0 1 3.23144,1.178l1.73201,-1.657a7.386,7.177 0 0 0 -4.96345,-1.843c-4.07943,0 -7.34998,3.169 -7.34998,7.037c0,3.869 3.27055,7.074 7.34998,7.074c1.88535,0 3.57825,-0.663 4.84819,-1.768l-1.73201,-1.658zm78.30784,-10.132l-5.42552,6.263l-5.46463,-6.263l-0.03808,0.074l0,-0.074l-2.19409,0l0,12.969l2.19409,0l0,-9.506l5.50271,6.263l5.42552,-6.115l0,9.358l2.15498,0l0,-12.969l-2.15498,0zm-60.14489,6.484c0,3.906 -3.30965,7.037 -7.34998,7.037c-4.0784,0 -7.34895,-3.168 -7.34895,-7.037c0,-3.868 3.30862,-7.037 7.34895,-7.037s7.34998,3.169 7.34998,7.037m-2.46269,0c0,-2.615 -2.19306,-4.715 -4.92537,-4.715s-4.92537,2.1 -4.92537,4.715c0,2.616 2.19306,4.716 4.92537,4.716s4.92537,-2.1 4.92537,-4.716m47.25413,0c0,3.906 -3.30965,7.037 -7.34998,7.037c-4.07943,0 -7.34998,-3.168 -7.34998,-7.037c0,-3.868 3.30965,-7.037 7.34998,-7.037c4.0784,0 7.34998,3.169 7.34998,7.037m-2.42461,0c0,-2.615 -2.19306,-4.715 -4.92537,-4.715s-4.92537,2.1 -4.92537,4.715c0,2.616 2.19306,4.716 4.92537,4.716c2.69321,0 4.92537,-2.1 4.92537,-4.716m-12.31343,-6.484l-2.96387,0l-5.57886,5.453l-2.27024,0l0,-5.453l-2.15498,0l0,12.969l2.15498,0l0,-5.416l2.23113,0l5.57989,5.416l2.92476,0l-6.61827,-6.448l6.69546,-6.521z" fill="#FF4B5F"/>
   <path stroke="null" id="svg_4" d="m176.7,3.942l-2.9227,0l-5.619,5.453l-2.27024,0l0,-5.453l-2.15498,0l0,12.969l2.15498,0l0,-5.416l2.27024,0l5.54079,5.416l2.92476,0l-6.5802,-6.448l6.65635,-6.521zm-31.86157,12.968l2.38756,0l-5.96581,-12.968l-2.46269,0l-5.96375,12.969l2.3855,0l1.30801,-2.8l7.00419,0l1.30698,2.8l0,-0.001zm-7.34792,-4.863l2.53884,-5.452l2.53987,5.452l-5.07974,0l0.00103,0z" fill="#003791"/>
   <path stroke="null" id="svg_5" d="m69.68793,13.153a3.81186,3.704 0 0 0 -1.23186,-2.727c0.73068,-0.7 1.23186,-1.658 1.23186,-2.726a3.87978,3.77 0 0 0 -3.88699,-3.758l-7.92629,0l0,13.005l7.92629,0c2.15498,-0.036 3.88699,-1.731 3.88699,-3.794zm-9.62022,-7.11l5.69515,0c0.96223,0 1.73098,0.736 1.73098,1.657s-0.76875,1.658 -1.73098,1.658l-5.69515,0l0,-3.316l0,0.001zm5.69515,8.804l-5.69515,0l0,-3.352l5.73323,0c0.96223,0 1.73201,0.773 1.73201,1.658c-0.03911,0.92 -0.80786,1.694 -1.77009,1.694z" fill="#FF4B5F"/>
   <path stroke="null" id="svg_6" d="m158.84579,3.979l0,5.416l-7.88821,0l0,-5.416l-2.19306,0l0,12.895l2.19306,0l0,-5.38l7.88821,0l0,5.38l2.19409,0l0,-12.895l-2.19409,0zm-26.78183,9.174c0,-2.064 -1.77009,-3.758 -3.92507,-3.758l-5.69515,0l0,-3.353l8.31221,0l0,-2.1l-10.50526,0l0,13.005l7.88821,0c2.15498,-0.036 3.92507,-1.731 3.92507,-3.794zm-3.92507,1.694l-5.69515,0l0,-3.352l5.69515,0c0.96223,0 1.73201,0.773 1.73201,1.658c0,0.92 -0.76978,1.694 -1.73201,1.694z" fill="#003791"/>
  </g>
 </g>
</svg>