<?xml version="1.0" standalone="no"?>
<!DOCTYPE svg PUBLIC "-//W3C//DTD SVG 20010904//EN"
 "http://www.w3.org/TR/2001/REC-SVG-20010904/DTD/svg10.dtd">
<svg version="1.0" xmlns="http://www.w3.org/2000/svg"
 width="71.000000pt" height="71.000000pt" viewBox="0 0 71.000000 71.000000"
 preserveAspectRatio="xMidYMid meet">
<metadata>
Created by potrace 1.11, written by Peter Selinger 2001-2013
</metadata>
<g transform="translate(0.000000,71.000000) scale(0.100000,-0.100000)"
fill="#000000" stroke="none">
<path d="M72 647 l-32 -33 0 -250 0 -250 28 -27 28 -27 250 0 250 0 32 33 32
33 0 245 0 245 -33 32 -33 32 -245 0 -245 0 -32 -33z m268 -132 l0 -135 -135
0 -135 0 0 112 c0 101 2 114 22 135 20 21 29 23 135 23 l113 0 0 -135z m267
113 c21 -20 23 -29 23 -135 l0 -113 -135 0 -135 0 0 135 0 135 112 0 c101 0
114 -2 135 -22z m-267 -403 l0 -135 -112 0 c-101 0 -114 2 -135 22 -21 20 -23
29 -23 135 l0 113 135 0 135 0 0 -135z m290 23 c0 -101 -2 -114 -22 -135 -20
-21 -29 -23 -135 -23 l-113 0 0 135 0 135 135 0 135 0 0 -112z"/>
<path d="M200 565 c0 -33 -2 -35 -35 -35 -24 0 -35 -5 -35 -15 0 -10 11 -15
35 -15 33 0 35 -2 35 -35 0 -24 5 -35 15 -35 10 0 15 11 15 35 0 32 2 35 30
35 20 0 30 5 30 15 0 10 -10 15 -30 15 -28 0 -30 3 -30 35 0 24 -5 35 -15 35
-10 0 -15 -11 -15 -35z"/>
<path d="M410 515 c0 -12 16 -15 80 -15 64 0 80 3 80 15 0 12 -16 15 -80 15
-64 0 -80 -3 -80 -15z"/>
<path d="M137 312 c-4 -5 9 -24 28 -42 l35 -34 -36 -37 c-20 -20 -32 -39 -26
-42 5 -4 24 9 42 28 l34 35 37 -36 c20 -20 39 -32 42 -26 4 5 -9 24 -28 42
l-35 34 36 37 c20 20 32 39 26 42 -5 4 -24 -9 -42 -28 l-34 -35 -37 36 c-20
20 -39 32 -42 26z"/>
<path d="M410 265 c0 -12 16 -15 80 -15 64 0 80 3 80 15 0 12 -16 15 -80 15
-64 0 -80 -3 -80 -15z"/>
<path d="M410 195 c0 -12 16 -15 80 -15 64 0 80 3 80 15 0 12 -16 15 -80 15
-64 0 -80 -3 -80 -15z"/>
</g>
</svg>
